<?xml version="1.0" standalone="no"?>
<!DOCTYPE svg PUBLIC "-//W3C//DTD SVG 20010904//EN"
 "http://www.w3.org/TR/2001/REC-SVG-20010904/DTD/svg10.dtd">
<svg version="1.0" xmlns="http://www.w3.org/2000/svg"
 width="930.000000pt" height="307.000000pt" viewBox="0 0 930.000000 307.000000"
 preserveAspectRatio="xMidYMid meet">

<g transform="translate(0.000000,307.000000) scale(0.100000,-0.100000)"
fill="#000000" stroke="none">
<path d="M4780 2445 c0 -3 0 -310 0 -682 l0 -678 115 -3 115 -3 0 686 0 685
-115 0 c-63 0 -115 -2 -115 -5z"/>
<path d="M8305 2096 c-43 -19 -92 -78 -106 -128 -35 -133 56 -254 191 -252 93
1 163 55 185 142 19 73 -3 161 -51 203 -55 48 -154 64 -219 35z m152 -33 c110
-52 118 -220 13 -290 -72 -50 -186 -19 -224 60 -68 144 72 297 211 230z"/>
<path d="M8314 2004 c3 -9 6 -54 6 -100 0 -66 3 -84 14 -84 10 0 16 13 18 38
4 49 27 49 53 0 14 -27 27 -38 43 -38 l23 0 -22 39 -21 39 21 21 c11 11 21 32
21 45 0 37 -35 56 -103 56 -50 0 -58 -2 -53 -16z m106 -29 c17 -20 -3 -45 -37
-45 -25 0 -39 20 -29 45 3 8 16 15 29 15 14 0 30 -7 37 -15z"/>
<path d="M2223 2036 c-170 -39 -304 -170 -349 -341 -19 -69 -18 -219 2 -286
51 -173 167 -285 338 -329 93 -24 165 -25 259 -5 233 49 377 232 377 479 0
228 -114 396 -316 467 -77 27 -226 34 -311 15z m225 -222 c92 -38 152 -135
152 -249 0 -89 -13 -134 -53 -187 -68 -91 -191 -122 -292 -74 -98 46 -147 130
-147 251 0 117 55 213 147 256 50 23 142 25 193 3z"/>
<path d="M5492 2035 c-228 -50 -372 -233 -373 -476 0 -90 14 -153 52 -235 78
-166 230 -256 434 -258 122 0 214 25 302 83 242 162 275 550 64 759 -118 118
-298 166 -479 127z m228 -226 c84 -42 131 -121 138 -230 10 -174 -90 -299
-241 -299 -70 0 -112 16 -165 65 -133 120 -115 364 34 451 77 45 162 50 234
13z"/>
<path d="M6455 2037 c-78 -20 -144 -58 -190 -109 -55 -61 -75 -120 -75 -218 0
-64 5 -86 28 -132 l28 -55 -34 -39 c-18 -21 -40 -63 -48 -93 -27 -90 -6 -170
62 -241 l33 -35 -34 -33 c-44 -44 -59 -90 -53 -166 6 -71 24 -110 70 -157 63
-62 189 -99 343 -99 267 0 412 103 423 301 8 140 -41 226 -153 268 -48 18 -78
21 -213 21 -86 0 -174 5 -194 10 -61 17 -83 67 -56 125 10 22 16 25 37 19 49
-13 146 -19 196 -13 182 24 307 148 309 307 1 37 -1 81 -4 97 l-5 30 68 3 67
3 0 98 0 99 -212 6 c-117 3 -242 8 -278 11 -36 2 -87 -2 -115 -8z m182 -187
c63 -38 88 -129 55 -203 -24 -54 -57 -78 -115 -84 -102 -10 -178 84 -155 192
9 41 48 91 83 105 36 15 99 11 132 -10z m77 -784 c45 -19 66 -52 66 -104 0
-103 -134 -159 -277 -117 -67 20 -103 61 -103 116 0 90 45 119 183 119 61 0
110 -5 131 -14z"/>
<path d="M7414 2035 c-128 -28 -245 -111 -307 -217 -35 -60 -67 -184 -67 -257
1 -143 54 -274 149 -364 72 -69 136 -101 241 -123 181 -36 377 23 484 147 168
195 153 531 -31 699 -119 109 -297 153 -469 115z m236 -229 c154 -76 186 -324
58 -456 -126 -129 -346 -73 -404 103 -21 63 -15 187 10 237 67 130 208 179
336 116z"/>
<path d="M4335 2033 c-83 -18 -117 -37 -164 -90 l-49 -55 -7 71 -7 71 -104 0
-104 0 0 -475 0 -475 120 0 120 0 0 270 c0 222 3 277 15 308 31 72 90 115 184
135 l62 12 2 118 2 117 -25 -1 c-14 -1 -34 -3 -45 -6z"/>
<path d="M950 2023 c0 -5 43 -127 96 -273 52 -146 127 -354 166 -463 l70 -198
-71 -205 -70 -205 126 3 126 3 105 290 c160 444 306 849 346 958 l35 98 -131
-3 -131 -3 -69 -210 c-37 -115 -83 -261 -102 -324 -18 -62 -35 -110 -38 -105
-2 5 -49 152 -103 327 l-98 317 -129 0 c-70 0 -128 -3 -128 -7z"/>
<path d="M2940 1701 c0 -344 5 -402 44 -485 49 -106 123 -150 256 -151 74 0
93 4 143 28 31 16 69 44 84 63 28 38 43 32 43 -18 0 -56 4 -58 111 -58 l99 0
0 475 0 475 -114 0 -114 0 -4 -292 c-3 -271 -5 -296 -24 -338 -56 -122 -198
-144 -259 -40 -19 33 -20 55 -23 353 l-3 317 -120 0 -119 0 0 -329z"/>
</g>
</svg>
