<svg xmlns="http://www.w3.org/2000/svg" xmlns:xlink="http://www.w3.org/1999/xlink" width="24" height="24" viewBox="0 0 24 24">
    <defs>
        <path id="a" d="M9 16H4.351a3 3 0 0 1-3-3.452l1.38-8.998A2.997 2.997 0 0 1 5.72 1H17a1 1 0 0 1 1 1v11a1 1 0 0 1-.086.406l-4 9A1 1 0 0 1 13 23a4 4 0 0 1-4-4v-3zM5.709 3a1 1 0 0 0-1 .852l-1.38 8.998A1 1 0 0 0 4.34 14H10a1 1 0 0 1 1 1v4a2 2 0 0 0 1.392 1.906L16 12.788V3H5.709zM18 12h1.688A1.31 1.31 0 0 0 21 10.923V4.077A1.315 1.315 0 0 0 19.67 3H18v9zM17 1h2.652a3.31 3.31 0 0 1 3.339 2.866L23 4v7l-.009.134A3.305 3.305 0 0 1 19.67 14H17a1 1 0 0 1-1-1V2a1 1 0 0 1 1-1z"/>
    </defs>
    <g fill="none" fill-rule="evenodd">
        <mask id="b" fill="#fff">
            <use xlink:href="#a"/>
        </mask>
        <use fill="#000" fill-rule="nonzero" xlink:href="#a"/>
        <g fill="#000" mask="url(#b)">
            <path d="M0 0h24v24H0z"/>
        </g>
    </g>
</svg>
